<svg xmlns="http://www.w3.org/2000/svg" width="36" height="35" viewBox="0 0 36 35">
    <path fill="#00AEEF" fill-rule="evenodd" d="M18 1C8.887 1 1.5 8.387 1.5 17.5S8.887 34 18 34s16.5-7.387 16.5-16.5S27.113 1 18 1zM.5 17.5C.5 7.835 8.335 0 18 0s17.5 7.835 17.5 17.5S27.665 35 18 35 .5 27.165.5 17.5zM16 22v-4.5c0-.3 0-.3-.3-.4h-1.5c-.2 0-.2 0-.2-.2V14c0-.1 0-.1.2-.1h1.5c.3 0 .3 0 .3-.3v-2c0-.5.1-1 .2-1.5.3-1.3 1.2-2.1 2.5-2.4.5-.1 1-.2 1.5-.2h2.5c.2 0 .2 0 .1.2v2.9c0 .2 0 .2-.2.2h-1.8c-.6.1-.9.4-.9 1v1.8c0 .2 0 .2.2.2h2.6c.2 0 .2 0 .2.2-.1 1-.2 1.9-.3 2.9 0 .1 0 .2-.2.2h-2.2c-.3 0-.3 0-.3.3v9.1c0 .3 0 .3-.3.3h-3.4c-.2 0-.2 0-.2-.2V22z"/>
</svg>
