<svg xmlns="http://www.w3.org/2000/svg" width="36" height="35" viewBox="0 0 36 35">
    <path fill="#00AEEF" fill-rule="evenodd" d="M18 1C8.887 1 1.5 8.387 1.5 17.5S8.887 34 18 34s16.5-7.387 16.5-16.5S27.113 1 18 1zM.5 17.5C.5 7.835 8.335 0 18 0s17.5 7.835 17.5 17.5S27.665 35 18 35 .5 27.165.5 17.5zm9.5.3v-7.1c0-.6.5-1.2 1.2-1.2h14.2c.6 0 1 .3 1.2.8 0 .1.1.2.1.3v14.3c0 .6-.6 1.2-1.2 1.2H11.3c-.6 0-1.1-.4-1.2-1v-.2c-.1-2.4-.1-4.7-.1-7.1zm8.8-1v-.9c0-.1 0-.2-.2-.2h-2c-.2 0-.2 0-.2.2v7.6c0 .1 0 .1.1.1h2.2c.1 0 .1 0 .1-.1v-3.7c0-.3 0-.6.1-.9.1-.4.2-.8.6-1 .3-.2.7-.2 1.1-.2.5.1.7.4.9.8.1.3.1.6.1 1v4c0 .2 0 .2.2.2h2.1c.1 0 .2 0 .2-.1v-5c0-.5-.1-.9-.3-1.4-.3-.7-.7-1.2-1.5-1.4-.5-.2-1-.2-1.6-.1-.7 0-1.3.3-1.8 1 0 0 0 .1-.1.1zm-6.3 2.9v3.8c0 .2 0 .2.2.2h2.1c.2 0 .2 0 .2-.2V16c0-.2 0-.2-.2-.2h-2.1c-.2 0-.2 0-.2.2v3.7zm2.6-6.5c0-.8-.7-1.4-1.4-1.4s-1.4.5-1.4 1.4c0 .8.6 1.4 1.4 1.4.9 0 1.4-.7 1.4-1.4z"/>
</svg>
