<svg xmlns="http://www.w3.org/2000/svg" width="36" height="35" viewBox="0 0 36 35">
    <path fill="#00AEEF" fill-rule="evenodd" d="M18 1C8.887 1 1.5 8.387 1.5 17.5S8.887 34 18 34s16.5-7.387 16.5-16.5S27.113 1 18 1zM.5 17.5C.5 7.835 8.335 0 18 0s17.5 7.835 17.5 17.5S27.665 35 18 35 .5 27.165.5 17.5zm25.7 1.8c.1 1 .1 2 .2 2.8-.1.9-.1 1.8-.3 2.6 0 .1 0 .3-.1.4-.1.3-.4.5-.6.6-.4.3-.8.4-1.3.5-.7.2-1.3.2-2 .3-.7.1-1.5.2-2.2.2-.7.1-1.5.1-2.2.1-1.2 0-2.4-.1-3.6-.2-.9-.1-1.7-.1-2.5-.3-.5-.1-1.1-.2-1.6-.5-.2-.1-.4-.2-.5-.4-.1-.2-.2-.3-.2-.4-.1-.5-.2-1.1-.2-1.6-.1-.5-.1-1-.1-1.5 0-.9 0-1.9.2-2.8 0-.1 0-.3.1-.5v-.3c.1-.3.2-.5.4-.6.3-.2.7-.4 1.1-.5.7-.2 1.4-.3 2.2-.4 1-.1 2.1-.2 3.1-.3h3.7c.9.1 1.9.2 2.8.3.7.1 1.4.2 2 .4.3.1.6.2.9.4.4.2.6.5.6 1 0 .3.1.5.1.7zm-11.4 0c.1 0 .1 0 0 0 .1-.3.1-.5 0-.7 0-.1 0-.1-.1-.1h-2.6s-.1 0 0 .2v.7c0 .1 0 .1.1.1h.8v5.2c0 .1 0 .1.1.1h.7c.1 0 .1 0 .1-.1v-.1-3.9-.6-.5c0-.2 0-.2.2-.2s.4 0 .7-.1c0 .1.1.2 0 0zm2.5 5.5c.1 0 .1 0 0-.2v-1.3-3.2c0-.1 0-.1-.1-.1h-.6c-.1 0-.1 0-.1.1v3.4l-.3.3c-.1 0-.2.1-.3 0-.1 0-.1-.1-.1-.2v-.9V20c0-.1 0-.1-.1-.1h-.5c-.2 0-.2 0-.2.2.1 1.4 0 2.7.1 4.1 0 .3.2.5.4.5s.4 0 .6-.1c.1 0 .3-.2.4-.3 0 0 .1-.1.1 0v.4c0 .1 0 .1.1.1h.6zm3.2-2.4c0-.6.1-1.2-.1-1.8 0-.3-.2-.6-.5-.6s-.5 0-.7.2c-.1 0-.2.1-.3.2v-.2-1.7c0-.1 0-.1-.1-.1h-.6c-.1 0-.1 0-.1.1v6.1c0 .1 0 .1.1.1h.6c.1 0 .1 0 .1-.1v-.3l.1.1c.2.1.3.2.4.3.3.2.7.1.9-.2v-.1c.1 0 .1 0 .1-.1.1-.2.1-.5.1-.7v-1.2zm3.1.8c0-.1 0-.1 0 0-.3-.1-.5-.1-.7 0-.1 0-.1 0-.1.1v.4c0 .3-.2.4-.4.4s-.4-.2-.4-.4v-1h1.5c.1 0 .1 0 .1-.1v-1.2-.4c-.2-.7-.9-1.1-1.5-.9-.2.1-.4.2-.6.4-.2.2-.3.4-.3.7-.1.9-.1 1.8 0 2.7v.2c.2.2.3.5.6.6.5.3 1.3.2 1.6-.4 0-.1.1-.2.1-.3.1-.3.1-.5.1-.8zM12.8 12.5c-.5-1.6-1.1-3.3-1.8-4.9v-.1h1.3c.1 0 .1.1.1.1.3.9.6 1.7.9 2.6.1.1.1.3.2.5.1-.4.2-.6.3-.9.2-.8.4-1.5.7-2.2 0-.1 0-.1.1-.1h1.1s.1 0-.1.1c-.5 1.7-1 3.3-1.5 4.9-.1.1-.1.3-.1.4v2.2c0 .1 0 .1-.1.1h-1c-.1 0-.1 0-.1-.1v-2.4-.2zm7.3 2.3c-.2-.3-.3-.6-.3-1v-4c0-.1 0-.1.1-.1h1c.1 0 .1 0 .1.1v4.1c0 .1 0 .3.1.4.1.2.2.2.4.1s.4-.3.5-.5c.1-.1.1-.1.1-.2v-4c0-.1 0-.1.1-.1h1.1c.1 0 .1 0 .1.1v5.4c0 .1 0 .1-.1.1h-1.1c-.1 0-.1 0-.1-.1v-.7c-.2.2-.3.4-.5.5-.6.5-1.1.4-1.5-.1zm-4.5-2.2V11c.1-.7.5-1.1 1.1-1.3.7-.2 1.4-.1 1.9.4.3.3.4.6.4 1v2.7c-.1.7-.5 1.2-1.3 1.4-.7.1-1.2 0-1.7-.5-.2-.2-.3-.5-.4-.9v-1.2zm1.2-1.8V13.9c.1.3.2.4.5.4s.4-.1.5-.4v-.3-1.2-1.2-.3c-.1-.3-.3-.4-.5-.4s-.4.1-.5.3zm2.8 10.3v2.6c0 .1-.1.3-.2.3s-.3-.1-.4-.2v-.1-2.6l.1-.1c.2-.1.4-.1.5.1zm2.5.7c-.1 0-.1 0-.1-.1v-.6l.1-.1c.1-.2.4-.2.6 0 .1 0 .1.1.1.1v.6c0 .1 0 .1-.1.1h-.6z"/>
</svg>
